<svg xmlns="http://www.w3.org/2000/svg" width="25.027" height="25.027"><g data-name="Group 212"><path data-name="Path 118" d="M11.083.08a12.515 12.515 0 0 0 2.4 24.91 12.886 12.886 0 0 0 7.759-3.508l.183-.171a.521.521 0 0 0 .026-.737l-.711-.763a.521.521 0 0 0-.74-.024l-.381.356a10.428 10.428 0 1 1-6.8-18.052 10.612 10.612 0 0 1 10.119 10.7v.764a2.088 2.088 0 0 1-2.294 2.076 2.149 2.149 0 0 1-1.878-2.168v-4.6a.521.521 0 0 0-.521-.521h-1.039a.519.519 0 0 0-.47.3 5.731 5.731 0 1 0 .555 7.035 4.154 4.154 0 0 0 3.851 2.037 4.27 4.27 0 0 0 3.885-4.309v-.9A12.528 12.528 0 0 0 11.083.08zm1.431 16.083a3.65 3.65 0 1 1 3.65-3.65 3.654 3.654 0 0 1-3.651 3.651z" fill="#464646"/></g></svg>